<svg xmlns="http://www.w3.org/2000/svg" viewBox="0 0 32 32" width="32" height="32">
  <defs>
    <linearGradient id="grad1" x1="0%" y1="0%" x2="100%" y2="100%">
      <stop offset="0%" style="stop-color:#3B82F6;stop-opacity:1" />
      <stop offset="100%" style="stop-color:#1E40AF;stop-opacity:1" />
    </linearGradient>
    <linearGradient id="grad2" x1="0%" y1="0%" x2="100%" y2="100%">
      <stop offset="0%" style="stop-color:#10B981;stop-opacity:1" />
      <stop offset="100%" style="stop-color:#059669;stop-opacity:1" />
    </linearGradient>
    <linearGradient id="grad3" x1="0%" y1="0%" x2="100%" y2="100%">
      <stop offset="0%" style="stop-color:#EF4444;stop-opacity:1" />
      <stop offset="100%" style="stop-color:#DC2626;stop-opacity:1" />
    </linearGradient>
  </defs>
  
  <circle cx="16" cy="16" r="15" fill="url(#grad1)" stroke="#1E40AF" stroke-width="1"/>
  
  <rect x="8" y="12" width="3" height="8" fill="url(#grad2)" rx="1"/>
  <rect x="12" y="14" width="3" height="6" fill="url(#grad1)" rx="1"/>
  <rect x="16" y="16" width="3" height="4" fill="url(#grad3)" rx="1"/>
  <rect x="20" y="10" width="3" height="10" fill="url(#grad2)" rx="1"/>
  
  <path d="M6 20 L10 16 L14 18 L18 14 L22 12 L26 8" 
        stroke="#F59E0B" 
        stroke-width="2" 
        fill="none" 
        stroke-linecap="round" 
        stroke-linejoin="round"/>
  
  <circle cx="10" cy="16" r="1.5" fill="#F59E0B"/>
  <circle cx="14" cy="18" r="1.5" fill="#F59E0B"/>
  <circle cx="18" cy="14" r="1.5" fill="#F59E0B"/>
  <circle cx="22" cy="12" r="1.5" fill="#F59E0B"/>
</svg>
